{"title":"Beverly Hills Chihuahua - AVM","uid":5045160,"size":296806554,"categoryP":"video","categoryS":"handheld","magnet":"?xt=urn:btih:9f40fa51b624a659f3942d48b0abc363e91881fa&amp;dn=Beverly+Hills+Chihuahua+-+AVM&amp;tr=udp%3A%2F%2Ftracker.openbittorrent.com%3A80&amp;tr=udp%3A%2F%2Fopen.demonii.com%3A1337&amp;tr=udp%3A%2F%2Ftracker.coppersurfer.tk%3A6969&amp;tr=udp%3A%2F%2Fexodus.desync.com%3A6969","seeders":0,"leechers":0,"uploader":"AVIDM","files":1,"time":1249590549,"description":"AVIDMobile - http://www.avidmobile.com.ar (Mobile media)\n\nVideo\nID                               : 1\nFormat                           : MPEG-4 Visual\nFormat profile                   : Advanced Simple@L5\nFormat settings, BVOP            : Yes\nFormat settings, QPel            : No\nFormat settings, GMC             : No warppoints\nFormat settings, Matrix          : Default (H.263)\nCodec ID                         : 20\nDuration                         : 1h 31mn\nBit rate mode                    : Variable\nBit rate                         : 366 Kbps\nMaximum bit rate                 : 1 083 Kbps\nWidth                            : 320 pixels\nHeight                           : 240 pixels\nDisplay aspect ratio             : 4/3\nFrame rate mode                  : Variable\nFrame rate                       : 23.976 fps\nMinimum frame rate               : 23.974 fps\nMaximum frame rate               : 23.981 fps\nResolution                       : 24 bits\nColorimetry                      : 4:2:0\nScan type                        : Progressive\nBits/(Pixel*Frame)               : 0.199\nStream size                      : 239 MiB (85%)\n\n\nAudio\nID                               : 2\nFormat                           : AAC\nFormat/Info                      : Advanced Audio Codec\nFormat version                   : Version 4\nFormat profile                   : LC\nFormat settings, SBR             : No\nCodec ID                         : 40\nDuration                         : 1h 31mn\nBit rate mode                    : Variable\nBit rate                         : 63.7 Kbps\nMaximum bit rate                 : 88.6 Kbps\nChannel(s)                       : 2 channels\nChannel positions                : L R\nSampling rate                    : 22.05 KHz\nResolution                       : 16 bits\nStream size                      : 41.7 MiB (15%)","torrent":{"xt":"urn:btih:9f40fa51b624a659f3942d48b0abc363e91881fa","amp;dn":"Beverly+Hills+Chihuahua+-+AVM","amp;tr":["udp%3A%2F%2Ftracker.openbittorrent.com%3A80","udp%3A%2F%2Fopen.demonii.com%3A1337","udp%3A%2F%2Ftracker.coppersurfer.tk%3A6969","udp%3A%2F%2Fexodus.desync.com%3A6969"],"infoHash":"9f40fa51b624a659f3942d48b0abc363e91881fa","infoHashBuffer":{"type":"Buffer","data":[159,64,250,81,182,36,166,89,243,148,45,72,176,171,195,99,233,24,129,250]},"announce":[],"urlList":[]}}